<svg id="Layer_1" data-name="Layer 1" xmlns="http://www.w3.org/2000/svg" viewBox="0 0 500 500"><defs><style>.cls-1{fill:#e8cf4b;}</style></defs><title>Artboard 1</title><path class="cls-1" d="M151.29,259.18v44.58H139.57V286.25L127.67,303h-.08l-11.92-16.77v17.51H103.94V259.18h4.71l19,26,19-26Z"/><path class="cls-1" d="M157.05,281.73c0-13.26,10.52-23.32,24.25-23.32s24.25,10.06,24.25,23.32S195,304.89,181.27,304.89,157.05,294.89,157.05,281.73Zm36.64-.08a12.4,12.4,0,1,0-12.39,12A12,12,0,0,0,193.69,281.65Z"/><path class="cls-1" d="M250,259.59l-20.36,44.64h-5.32L204,259.59h12.69l10.19,23.92,10.23-23.92Z"/><path class="cls-1" d="M254.41,259.59h11.73v44.17H254.41Z"/><path class="cls-1" d="M285.4,270.5v6.16h14v9.78h-14v6.34h17.05v11H273.81V259.59h28.64V270.5Z"/><path class="cls-1" d="M332.56,303.76l-11.81-19.18v19.18H309l0-44.17h16.77c9.54,0,16.36,6.44,16.36,14.36A13.3,13.3,0,0,1,334.45,286l11.84,17.73ZM320.7,279l4.79,0a4.45,4.45,0,1,0,0-8.88H320.7Z"/><path class="cls-1" d="M355.94,284.69l-13.62-25.1h13.29l6.16,12.8,6.14-12.8h13.32l-13.65,25.1v19.07H355.94Z"/><path class="cls-1" d="M170.29,78A69.26,69.26,0,1,1,101,147.22,69.33,69.33,0,0,1,170.29,78m0-30a99.26,99.26,0,1,0,99.25,99.26A99.26,99.26,0,0,0,170.29,48Z"/><path class="cls-1" d="M334.13,155.11a30.68,30.68,0,1,1-30.69,30.68,30.72,30.72,0,0,1,30.69-30.68m0-30a60.68,60.68,0,1,0,60.68,60.68,60.69,60.69,0,0,0-60.68-60.68Z"/><polygon class="cls-1" points="387.07 255.12 387.07 308.18 423.29 329.1 423.29 234.2 387.07 255.12"/><polygon class="cls-1" points="233.57 329.1 181.42 452.04 144.01 452.04 196.16 329.1 233.57 329.1"/><polygon class="cls-1" points="355.99 452.04 318.58 452.04 266.43 329.1 303.84 329.1 355.99 452.04"/></svg>